<svg width="21" height="20" viewBox="0 0 21 20" fill="none" xmlns="http://www.w3.org/2000/svg">
<path fill-rule="evenodd" clip-rule="evenodd" d="M0.660158 0.0364196C0.426486 0.0917617 0.219096 0.261415 0.104627 0.490812C-0.0754221 0.851595 -0.02184 1.20203 0.255701 1.47874C0.502921 1.72525 0.624736 1.74889 1.64892 1.74889C2.61768 1.74889 2.73851 1.7722 2.89012 1.98823C2.93142 2.04712 3.63806 4.11303 4.46044 6.57918C6.20441 11.8089 6.0766 11.2492 5.78828 12.3934C5.52747 13.4283 5.56147 13.9351 5.93393 14.5656C6.21906 15.0482 6.8296 15.4944 7.35285 15.6024C7.50303 15.6334 9.22606 15.6435 13.0803 15.636L18.593 15.6252L18.7528 15.5138C18.8406 15.4525 18.9584 15.3346 19.0145 15.2518C19.1014 15.1238 19.1165 15.0549 19.1165 14.7893C19.1165 14.5153 19.1029 14.4576 19.005 14.3176C18.9436 14.2299 18.8256 14.1122 18.7427 14.0562L18.592 13.9543L13.1207 13.9339C7.17166 13.9118 7.55216 13.9283 7.40913 13.6865C7.31988 13.5356 7.32551 13.4277 7.44794 12.9429C7.56612 12.4749 7.61864 12.3745 7.80448 12.2613C7.93181 12.1838 8.04905 12.1819 12.7252 12.1817C16.397 12.1816 17.5547 12.1699 17.6835 12.1314C17.7791 12.1029 17.9236 12.0094 18.0189 11.9144C18.1841 11.7497 18.2031 11.6974 19.3962 8.12285C20.0616 6.12935 20.6061 4.44574 20.6061 4.38147C20.6061 4.05663 20.3864 3.70881 20.0988 3.5784C19.9393 3.50602 19.6503 3.503 12.8116 3.5019C8.10553 3.50117 5.63966 3.4867 5.54073 3.45928C5.24867 3.37826 5.18521 3.25295 4.70513 1.80851C4.31141 0.623788 4.24477 0.455765 4.10626 0.297889C3.85321 0.00944128 3.76404 -0.00417014 2.16323 0.000679424C1.40982 0.00300233 0.73341 0.0190589 0.660158 0.0364196ZM6.406 16.6228C5.72972 16.8726 5.29151 17.4373 5.23299 18.1343C5.14587 19.172 6.05639 20.0812 7.09547 19.9942C7.81224 19.9342 8.40899 19.4548 8.6265 18.7644C8.73995 18.4041 8.70334 17.9049 8.53757 17.5511C8.3605 17.1732 8.093 16.9002 7.71874 16.7156C7.44071 16.5783 7.37864 16.5638 7.02128 16.5527C6.70677 16.5429 6.58483 16.5568 6.406 16.6228ZM16.8531 16.6228C16.1768 16.8726 15.7386 17.4373 15.6801 18.1343C15.5929 19.172 16.5035 20.0812 17.5425 19.9942C18.2593 19.9342 18.8561 19.4548 19.0736 18.7644C19.187 18.4041 19.1504 17.9049 18.9846 17.5511C18.8076 17.1732 18.5401 16.9002 18.1658 16.7156C17.8878 16.5783 17.8257 16.5638 17.4683 16.5527C17.1538 16.5429 17.0319 16.5568 16.8531 16.6228Z" fill="white"/>
</svg>
